<mxfile host="app.diagrams.net" modified="2023-04-29T14:44:09.934Z" agent="Mozilla/5.0 (Windows NT 10.0; Win64; x64) AppleWebKit/537.36 (KHTML, like Gecko) Chrome/112.0.0.0 Safari/537.36" etag="b_T6GZWdjg82IxCDGZBK" version="21.2.3" type="device">
  <diagram name="Page-1" id="26J8vwuG8CMD-ecTnOiz">
    <mxGraphModel dx="1050" dy="617" grid="1" gridSize="10" guides="1" tooltips="1" connect="1" arrows="1" fold="1" page="1" pageScale="1" pageWidth="850" pageHeight="1100" math="0" shadow="0">
      <root>
        <mxCell id="0" />
        <mxCell id="1" parent="0" />
        <mxCell id="Q-b2zcMxuetkIMQG6-cL-1" value="&lt;font style=&quot;font-size: 20px;&quot;&gt;Customer&lt;/font&gt;" style="html=1;dashed=0;whiteSpace=wrap;fillColor=#dae8fc;strokeColor=#6c8ebf;" parent="1" vertex="1">
          <mxGeometry x="10" y="200" width="190" height="80" as="geometry" />
        </mxCell>
        <mxCell id="Q-b2zcMxuetkIMQG6-cL-2" value="&lt;font style=&quot;font-size: 30px;&quot;&gt;0.0&lt;br&gt;Golden Deal&lt;/font&gt;" style="shape=ellipse;html=1;dashed=0;whiteSpace=wrap;aspect=fixed;perimeter=ellipsePerimeter;fillColor=#e1d5e7;strokeColor=#9673a6;" parent="1" vertex="1">
          <mxGeometry x="480" y="140" width="220" height="220" as="geometry" />
        </mxCell>
        <mxCell id="Q-b2zcMxuetkIMQG6-cL-3" value="" style="endArrow=classic;html=1;rounded=0;" parent="1" edge="1">
          <mxGeometry width="50" height="50" relative="1" as="geometry">
            <mxPoint x="200" y="40" as="sourcePoint" />
            <mxPoint x="480" y="40" as="targetPoint" />
          </mxGeometry>
        </mxCell>
        <mxCell id="Q-b2zcMxuetkIMQG6-cL-4" value="Select buy Used \ new car" style="text;html=1;strokeColor=none;fillColor=none;align=center;verticalAlign=middle;whiteSpace=wrap;rounded=0;" parent="1" vertex="1">
          <mxGeometry x="236" y="25" width="200" height="10" as="geometry" />
        </mxCell>
        <mxCell id="Q-b2zcMxuetkIMQG6-cL-5" value="" style="endArrow=classic;html=1;rounded=0;" parent="1" edge="1">
          <mxGeometry width="50" height="50" relative="1" as="geometry">
            <mxPoint x="480" y="63" as="sourcePoint" />
            <mxPoint x="200" y="63" as="targetPoint" />
          </mxGeometry>
        </mxCell>
        <mxCell id="Q-b2zcMxuetkIMQG6-cL-6" value="Display all available car and itâ€™s info" style="text;html=1;strokeColor=none;fillColor=none;align=center;verticalAlign=middle;whiteSpace=wrap;rounded=0;" parent="1" vertex="1">
          <mxGeometry x="230" y="50" width="200" height="10" as="geometry" />
        </mxCell>
        <mxCell id="Q-b2zcMxuetkIMQG6-cL-7" value="" style="endArrow=classic;html=1;rounded=0;" parent="1" edge="1">
          <mxGeometry width="50" height="50" relative="1" as="geometry">
            <mxPoint x="200" y="83" as="sourcePoint" />
            <mxPoint x="480" y="83" as="targetPoint" />
          </mxGeometry>
        </mxCell>
        <mxCell id="Q-b2zcMxuetkIMQG6-cL-8" value="Select sell + add car info" style="text;html=1;strokeColor=none;fillColor=none;align=center;verticalAlign=middle;whiteSpace=wrap;rounded=0;" parent="1" vertex="1">
          <mxGeometry x="230" y="68" width="200" height="10" as="geometry" />
        </mxCell>
        <mxCell id="Q-b2zcMxuetkIMQG6-cL-9" value="" style="endArrow=classic;html=1;rounded=0;" parent="1" edge="1">
          <mxGeometry width="50" height="50" relative="1" as="geometry">
            <mxPoint x="480" y="100" as="sourcePoint" />
            <mxPoint x="200" y="100" as="targetPoint" />
          </mxGeometry>
        </mxCell>
        <mxCell id="Q-b2zcMxuetkIMQG6-cL-10" value="Added to sell successfuly" style="text;html=1;strokeColor=none;fillColor=none;align=center;verticalAlign=middle;whiteSpace=wrap;rounded=0;" parent="1" vertex="1">
          <mxGeometry x="229" y="86" width="200" height="10" as="geometry" />
        </mxCell>
        <mxCell id="Q-b2zcMxuetkIMQG6-cL-11" value="" style="endArrow=classic;html=1;rounded=0;" parent="1" edge="1">
          <mxGeometry width="50" height="50" relative="1" as="geometry">
            <mxPoint x="200" y="160" as="sourcePoint" />
            <mxPoint x="480" y="160" as="targetPoint" />
          </mxGeometry>
        </mxCell>
        <mxCell id="Q-b2zcMxuetkIMQG6-cL-12" value="Select predict + add car model" style="text;html=1;strokeColor=none;fillColor=none;align=center;verticalAlign=middle;whiteSpace=wrap;rounded=0;" parent="1" vertex="1">
          <mxGeometry x="233" y="143" width="200" height="10" as="geometry" />
        </mxCell>
        <mxCell id="Q-b2zcMxuetkIMQG6-cL-13" value="" style="endArrow=classic;html=1;rounded=0;" parent="1" edge="1">
          <mxGeometry width="50" height="50" relative="1" as="geometry">
            <mxPoint x="473" y="182" as="sourcePoint" />
            <mxPoint x="204" y="182" as="targetPoint" />
          </mxGeometry>
        </mxCell>
        <mxCell id="Q-b2zcMxuetkIMQG6-cL-14" value="Display all car price range" style="text;html=1;strokeColor=none;fillColor=none;align=center;verticalAlign=middle;whiteSpace=wrap;rounded=0;" parent="1" vertex="1">
          <mxGeometry x="243" y="166" width="200" height="10" as="geometry" />
        </mxCell>
        <mxCell id="Q-b2zcMxuetkIMQG6-cL-15" value="" style="endArrow=classic;html=1;rounded=0;" parent="1" edge="1">
          <mxGeometry width="50" height="50" relative="1" as="geometry">
            <mxPoint x="210" y="201" as="sourcePoint" />
            <mxPoint x="470" y="201" as="targetPoint" />
          </mxGeometry>
        </mxCell>
        <mxCell id="Q-b2zcMxuetkIMQG6-cL-16" value="Select rent and choose vehicle type" style="text;html=1;strokeColor=none;fillColor=none;align=center;verticalAlign=middle;whiteSpace=wrap;rounded=0;" parent="1" vertex="1">
          <mxGeometry x="243" y="186" width="200" height="10" as="geometry" />
        </mxCell>
        <mxCell id="Q-b2zcMxuetkIMQG6-cL-17" value="" style="endArrow=classic;html=1;rounded=0;" parent="1" edge="1">
          <mxGeometry width="50" height="50" relative="1" as="geometry">
            <mxPoint x="474" y="221" as="sourcePoint" />
            <mxPoint x="205" y="221" as="targetPoint" />
          </mxGeometry>
        </mxCell>
        <mxCell id="Q-b2zcMxuetkIMQG6-cL-18" value="Display all available vehicles" style="text;html=1;strokeColor=none;fillColor=none;align=center;verticalAlign=middle;whiteSpace=wrap;rounded=0;" parent="1" vertex="1">
          <mxGeometry x="240" y="206" width="200" height="10" as="geometry" />
        </mxCell>
        <mxCell id="Q-b2zcMxuetkIMQG6-cL-19" value="" style="endArrow=classic;html=1;rounded=0;movable=1;resizable=1;rotatable=1;deletable=1;editable=1;locked=0;connectable=1;" parent="1" edge="1">
          <mxGeometry width="50" height="50" relative="1" as="geometry">
            <mxPoint x="210" y="280" as="sourcePoint" />
            <mxPoint x="470" y="280" as="targetPoint" />
          </mxGeometry>
        </mxCell>
        <mxCell id="Q-b2zcMxuetkIMQG6-cL-20" value="Select Maintenance + enable location" style="text;html=1;strokeColor=none;fillColor=none;align=center;verticalAlign=middle;whiteSpace=wrap;rounded=0;" parent="1" vertex="1">
          <mxGeometry x="240" y="264" width="210" height="10" as="geometry" />
        </mxCell>
        <mxCell id="Q-b2zcMxuetkIMQG6-cL-21" value="" style="endArrow=classic;html=1;rounded=0;" parent="1" edge="1">
          <mxGeometry width="50" height="50" relative="1" as="geometry">
            <mxPoint x="472" y="301" as="sourcePoint" />
            <mxPoint x="203" y="301" as="targetPoint" />
          </mxGeometry>
        </mxCell>
        <mxCell id="Q-b2zcMxuetkIMQG6-cL-22" value="Display all maintenance shops near user" style="text;html=1;strokeColor=none;fillColor=none;align=center;verticalAlign=middle;whiteSpace=wrap;rounded=0;" parent="1" vertex="1">
          <mxGeometry x="220" y="286" width="231" height="10" as="geometry" />
        </mxCell>
        <mxCell id="Q-b2zcMxuetkIMQG6-cL-23" value="" style="endArrow=classic;html=1;rounded=0;movable=1;resizable=1;rotatable=1;deletable=1;editable=1;locked=0;connectable=1;" parent="1" edge="1">
          <mxGeometry width="50" height="50" relative="1" as="geometry">
            <mxPoint x="200" y="358" as="sourcePoint" />
            <mxPoint x="480" y="358" as="targetPoint" />
          </mxGeometry>
        </mxCell>
        <mxCell id="Q-b2zcMxuetkIMQG6-cL-24" value="" style="endArrow=classic;html=1;rounded=0;" parent="1" edge="1">
          <mxGeometry width="50" height="50" relative="1" as="geometry">
            <mxPoint x="480" y="383" as="sourcePoint" />
            <mxPoint x="200" y="383" as="targetPoint" />
          </mxGeometry>
        </mxCell>
        <mxCell id="Q-b2zcMxuetkIMQG6-cL-25" value="Select petrol or gas stations + enable location" style="text;html=1;strokeColor=none;fillColor=none;align=center;verticalAlign=middle;whiteSpace=wrap;rounded=0;" parent="1" vertex="1">
          <mxGeometry x="200" y="342" width="260" height="10" as="geometry" />
        </mxCell>
        <mxCell id="Q-b2zcMxuetkIMQG6-cL-26" value="Display all petrol or gas stations near user +car details" style="text;html=1;strokeColor=none;fillColor=none;align=center;verticalAlign=middle;whiteSpace=wrap;rounded=0;" parent="1" vertex="1">
          <mxGeometry x="200" y="368" width="310" height="10" as="geometry" />
        </mxCell>
        <mxCell id="Q-b2zcMxuetkIMQG6-cL-27" value="&lt;font style=&quot;font-size: 20px;&quot;&gt;Shop&lt;/font&gt;" style="html=1;dashed=0;whiteSpace=wrap;fillColor=#bac8d3;strokeColor=#23445d;" parent="1" vertex="1">
          <mxGeometry x="960" y="400" width="190" height="80" as="geometry" />
        </mxCell>
        <mxCell id="Q-b2zcMxuetkIMQG6-cL-28" value="&lt;font style=&quot;font-size: 20px;&quot;&gt;Showroom&lt;/font&gt;" style="html=1;dashed=0;whiteSpace=wrap;fillColor=#b0e3e6;strokeColor=#0e8088;" parent="1" vertex="1">
          <mxGeometry x="960" y="240" width="190" height="80" as="geometry" />
        </mxCell>
        <mxCell id="Q-b2zcMxuetkIMQG6-cL-29" value="&lt;span style=&quot;font-size: 20px;&quot;&gt;Company&lt;/span&gt;" style="html=1;dashed=0;whiteSpace=wrap;fillColor=#d5e8d4;strokeColor=#82b366;" parent="1" vertex="1">
          <mxGeometry x="960" y="78" width="190" height="80" as="geometry" />
        </mxCell>
        <mxCell id="Q-b2zcMxuetkIMQG6-cL-30" value="" style="endArrow=classic;html=1;rounded=0;" parent="1" edge="1">
          <mxGeometry width="50" height="50" relative="1" as="geometry">
            <mxPoint x="950" y="80" as="sourcePoint" />
            <mxPoint x="680" y="80" as="targetPoint" />
          </mxGeometry>
        </mxCell>
        <mxCell id="Q-b2zcMxuetkIMQG6-cL-33" value="Add cars and car info" style="text;html=1;strokeColor=none;fillColor=none;align=center;verticalAlign=middle;whiteSpace=wrap;rounded=0;" parent="1" vertex="1">
          <mxGeometry x="710" y="63" width="200" height="10" as="geometry" />
        </mxCell>
        <mxCell id="Q-b2zcMxuetkIMQG6-cL-34" value="" style="endArrow=classic;html=1;rounded=0;" parent="1" edge="1">
          <mxGeometry width="50" height="50" relative="1" as="geometry">
            <mxPoint x="680" y="100" as="sourcePoint" />
            <mxPoint x="950" y="100" as="targetPoint" />
          </mxGeometry>
        </mxCell>
        <mxCell id="Q-b2zcMxuetkIMQG6-cL-35" value="Car added successfuly" style="text;html=1;strokeColor=none;fillColor=none;align=center;verticalAlign=middle;whiteSpace=wrap;rounded=0;" parent="1" vertex="1">
          <mxGeometry x="709" y="85" width="200" height="10" as="geometry" />
        </mxCell>
        <mxCell id="Q-b2zcMxuetkIMQG6-cL-36" value="" style="endArrow=classic;html=1;rounded=0;" parent="1" edge="1">
          <mxGeometry width="50" height="50" relative="1" as="geometry">
            <mxPoint x="951" y="120" as="sourcePoint" />
            <mxPoint x="680" y="120" as="targetPoint" />
          </mxGeometry>
        </mxCell>
        <mxCell id="Q-b2zcMxuetkIMQG6-cL-37" value="Edit car info" style="text;html=1;strokeColor=none;fillColor=none;align=center;verticalAlign=middle;whiteSpace=wrap;rounded=0;" parent="1" vertex="1">
          <mxGeometry x="709" y="104" width="200" height="10" as="geometry" />
        </mxCell>
        <mxCell id="Q-b2zcMxuetkIMQG6-cL-38" value="" style="endArrow=classic;html=1;rounded=0;" parent="1" edge="1">
          <mxGeometry width="50" height="50" relative="1" as="geometry">
            <mxPoint x="681" y="139" as="sourcePoint" />
            <mxPoint x="951" y="139" as="targetPoint" />
          </mxGeometry>
        </mxCell>
        <mxCell id="Q-b2zcMxuetkIMQG6-cL-39" value="Edit car info" style="text;html=1;strokeColor=none;fillColor=none;align=center;verticalAlign=middle;whiteSpace=wrap;rounded=0;" parent="1" vertex="1">
          <mxGeometry x="714" y="125" width="200" height="10" as="geometry" />
        </mxCell>
        <mxCell id="Q-b2zcMxuetkIMQG6-cL-40" value="" style="endArrow=classic;html=1;rounded=0;" parent="1" edge="1">
          <mxGeometry width="50" height="50" relative="1" as="geometry">
            <mxPoint x="960" y="246" as="sourcePoint" />
            <mxPoint x="700" y="246" as="targetPoint" />
          </mxGeometry>
        </mxCell>
        <mxCell id="Q-b2zcMxuetkIMQG6-cL-41" value="" style="endArrow=classic;html=1;rounded=0;" parent="1" edge="1">
          <mxGeometry width="50" height="50" relative="1" as="geometry">
            <mxPoint x="710" y="266" as="sourcePoint" />
            <mxPoint x="960" y="266" as="targetPoint" />
          </mxGeometry>
        </mxCell>
        <mxCell id="Q-b2zcMxuetkIMQG6-cL-42" value="" style="endArrow=classic;html=1;rounded=0;" parent="1" edge="1">
          <mxGeometry width="50" height="50" relative="1" as="geometry">
            <mxPoint x="959" y="286" as="sourcePoint" />
            <mxPoint x="699" y="286" as="targetPoint" />
          </mxGeometry>
        </mxCell>
        <mxCell id="Q-b2zcMxuetkIMQG6-cL-44" value="" style="endArrow=classic;html=1;rounded=0;" parent="1" edge="1">
          <mxGeometry width="50" height="50" relative="1" as="geometry">
            <mxPoint x="700" y="308" as="sourcePoint" />
            <mxPoint x="958" y="308" as="targetPoint" />
          </mxGeometry>
        </mxCell>
        <mxCell id="Q-b2zcMxuetkIMQG6-cL-46" value="Select car condition +add car" style="text;html=1;strokeColor=none;fillColor=none;align=center;verticalAlign=middle;whiteSpace=wrap;rounded=0;" parent="1" vertex="1">
          <mxGeometry x="720" y="229" width="200" height="10" as="geometry" />
        </mxCell>
        <mxCell id="Q-b2zcMxuetkIMQG6-cL-47" value="Car added successfuly" style="text;html=1;strokeColor=none;fillColor=none;align=center;verticalAlign=middle;whiteSpace=wrap;rounded=0;" parent="1" vertex="1">
          <mxGeometry x="730" y="251" width="200" height="10" as="geometry" />
        </mxCell>
        <mxCell id="Q-b2zcMxuetkIMQG6-cL-48" value="Edit car info" style="text;html=1;strokeColor=none;fillColor=none;align=center;verticalAlign=middle;whiteSpace=wrap;rounded=0;" parent="1" vertex="1">
          <mxGeometry x="730" y="271" width="200" height="10" as="geometry" />
        </mxCell>
        <mxCell id="Q-b2zcMxuetkIMQG6-cL-49" value="Edeted successfuly" style="text;html=1;strokeColor=none;fillColor=none;align=center;verticalAlign=middle;whiteSpace=wrap;rounded=0;" parent="1" vertex="1">
          <mxGeometry x="729" y="293" width="200" height="10" as="geometry" />
        </mxCell>
        <mxCell id="Q-b2zcMxuetkIMQG6-cL-50" value="" style="endArrow=classic;html=1;rounded=0;" parent="1" edge="1">
          <mxGeometry width="50" height="50" relative="1" as="geometry">
            <mxPoint x="957" y="410" as="sourcePoint" />
            <mxPoint x="680" y="410" as="targetPoint" />
          </mxGeometry>
        </mxCell>
        <mxCell id="Q-b2zcMxuetkIMQG6-cL-51" value="" style="endArrow=classic;html=1;rounded=0;" parent="1" edge="1">
          <mxGeometry width="50" height="50" relative="1" as="geometry">
            <mxPoint x="680" y="430" as="sourcePoint" />
            <mxPoint x="959" y="431" as="targetPoint" />
          </mxGeometry>
        </mxCell>
        <mxCell id="Q-b2zcMxuetkIMQG6-cL-52" value="" style="endArrow=classic;html=1;rounded=0;" parent="1" edge="1">
          <mxGeometry width="50" height="50" relative="1" as="geometry">
            <mxPoint x="960" y="456" as="sourcePoint" />
            <mxPoint x="683" y="456" as="targetPoint" />
          </mxGeometry>
        </mxCell>
        <mxCell id="Q-b2zcMxuetkIMQG6-cL-53" value="" style="endArrow=classic;html=1;rounded=0;" parent="1" edge="1">
          <mxGeometry width="50" height="50" relative="1" as="geometry">
            <mxPoint x="681" y="478" as="sourcePoint" />
            <mxPoint x="960" y="479" as="targetPoint" />
          </mxGeometry>
        </mxCell>
        <mxCell id="Q-b2zcMxuetkIMQG6-cL-54" value="Add all car equipment in his shop" style="text;html=1;strokeColor=none;fillColor=none;align=center;verticalAlign=middle;whiteSpace=wrap;rounded=0;" parent="1" vertex="1">
          <mxGeometry x="730" y="396" width="200" height="10" as="geometry" />
        </mxCell>
        <mxCell id="Q-b2zcMxuetkIMQG6-cL-55" value="Equipment added successfuly" style="text;html=1;strokeColor=none;fillColor=none;align=center;verticalAlign=middle;whiteSpace=wrap;rounded=0;" parent="1" vertex="1">
          <mxGeometry x="730" y="417" width="200" height="10" as="geometry" />
        </mxCell>
        <mxCell id="Q-b2zcMxuetkIMQG6-cL-56" value="Edit equipment info" style="text;html=1;strokeColor=none;fillColor=none;align=center;verticalAlign=middle;whiteSpace=wrap;rounded=0;" parent="1" vertex="1">
          <mxGeometry x="726" y="441" width="200" height="10" as="geometry" />
        </mxCell>
        <mxCell id="Q-b2zcMxuetkIMQG6-cL-57" value="Equipment edited successfuly" style="text;html=1;strokeColor=none;fillColor=none;align=center;verticalAlign=middle;whiteSpace=wrap;rounded=0;" parent="1" vertex="1">
          <mxGeometry x="719" y="463" width="200" height="10" as="geometry" />
        </mxCell>
      </root>
    </mxGraphModel>
  </diagram>
</mxfile>
